<?xml version="1.0" encoding="UTF-8"?>
<!DOCTYPE svg PUBLIC "-//W3C//DTD SVG 1.1//EN" "http://www.w3.org/Graphics/SVG/1.1/DTD/svg11.dtd">
<svg xmlns="http://www.w3.org/2000/svg" version="1.1" width="200px" height="199px" style="shape-rendering:geometricPrecision; text-rendering:geometricPrecision; image-rendering:optimizeQuality; fill-rule:evenodd; clip-rule:evenodd" xmlns:xlink="http://www.w3.org/1999/xlink">
<g><path style="opacity:0.999" fill="#d5ba3a" d="M 58.5,17.5 C 61.7893,18.3739 65.1226,19.0405 68.5,19.5C 73.14,21.2685 77.4734,23.6018 81.5,26.5C 79.1432,26.3367 76.8098,26.5034 74.5,27C 73.7476,27.6708 73.4142,28.5041 73.5,29.5C 72.609,28.8902 71.609,28.5569 70.5,28.5C 64.9294,25.6481 58.9294,23.9814 52.5,23.5C 49.3586,22.6787 46.0252,22.1787 42.5,22C 41.4829,20.9505 41.3162,19.7839 42,18.5C 47.4066,17.5268 52.9066,17.1934 58.5,17.5 Z"/></g>
<g><path style="opacity:0.612" fill="#9f8e38" d="M 58.5,17.5 C 52.9066,17.1934 47.4066,17.5268 42,18.5C 41.3162,19.7839 41.4829,20.9505 42.5,22C 46.0252,22.1787 49.3586,22.6787 52.5,23.5C 48.8183,23.6653 45.1516,23.4986 41.5,23C 38.8333,21 38.8333,19 41.5,17C 47.3487,16.1816 53.0154,16.3483 58.5,17.5 Z"/></g>
<g><path style="opacity:0.118" fill="#0d0600" d="M 71.5,19.5 C 70.5,19.5 69.5,19.5 68.5,19.5C 65.1226,19.0405 61.7893,18.3739 58.5,17.5C 53.0154,16.3483 47.3487,16.1816 41.5,17C 38.8333,19 38.8333,21 41.5,23C 45.1516,23.4986 48.8183,23.6653 52.5,23.5C 58.9294,23.9814 64.9294,25.6481 70.5,28.5C 69.8333,28.5 69.1667,28.5 68.5,28.5C 59.0947,25.4883 49.428,23.9883 39.5,24C 37.9865,21.0844 38.3199,18.4177 40.5,16C 47.1667,15.3333 53.8333,15.3333 60.5,16C 64.4273,16.7244 68.094,17.891 71.5,19.5 Z"/></g>
<g><path style="opacity:1" fill="#d3bb38" d="M 81.5,26.5 C 86.7565,28.7549 90.7565,32.4216 93.5,37.5C 93.4386,39.5922 92.4386,41.0922 90.5,42C 91.3052,43.9717 92.6385,45.4717 94.5,46.5C 94.1924,47.3081 93.6924,47.9747 93,48.5C 92.5831,47.244 91.7498,46.5774 90.5,46.5C 86.4724,39.139 80.8057,33.4724 73.5,29.5C 73.4142,28.5041 73.7476,27.6708 74.5,27C 76.8098,26.5034 79.1432,26.3367 81.5,26.5 Z"/></g>
<g><path style="opacity:0.188" fill="#130b00" d="M 68.5,19.5 C 69.5,19.5 70.5,19.5 71.5,19.5C 90.5455,26.8846 102.546,40.5513 107.5,60.5C 107.5,61.1667 107.5,61.8333 107.5,62.5C 106.5,60.5 105.5,58.5 104.5,56.5C 104.107,54.7162 103.441,53.0495 102.5,51.5C 100.281,46.2909 97.2809,41.6243 93.5,37.5C 90.7565,32.4216 86.7565,28.7549 81.5,26.5C 77.4734,23.6018 73.14,21.2685 68.5,19.5 Z"/></g>
<g><path style="opacity:0.039" fill="#130b00" d="M 68.5,28.5 C 69.1667,28.5 69.8333,28.5 70.5,28.5C 71.609,28.5569 72.609,28.8902 73.5,29.5C 80.8057,33.4724 86.4724,39.139 90.5,46.5C 92.7845,50.0732 94.7845,53.7399 96.5,57.5C 97.038,59.1172 97.3713,60.7839 97.5,62.5C 97.5,63.1667 97.5,63.8333 97.5,64.5C 93.9905,55.1527 89.1572,46.4861 83,38.5C 78.3615,34.7738 73.5282,31.4405 68.5,28.5 Z"/></g>
<g><path style="opacity:1" fill="#d0b639" d="M 93.5,37.5 C 97.2809,41.6243 100.281,46.2909 102.5,51.5C 100.471,49.9612 98.971,47.9612 98,45.5C 97.1721,49.466 96.6721,53.466 96.5,57.5C 94.7845,53.7399 92.7845,50.0732 90.5,46.5C 91.7498,46.5774 92.5831,47.244 93,48.5C 93.6924,47.9747 94.1924,47.3081 94.5,46.5C 92.6385,45.4717 91.3052,43.9717 90.5,42C 92.4386,41.0922 93.4386,39.5922 93.5,37.5 Z"/></g>
<g><path style="opacity:1" fill="#d7bf39" d="M 102.5,51.5 C 103.441,53.0495 104.107,54.7162 104.5,56.5C 104.381,60.347 105.047,64.0137 106.5,67.5C 105.542,67.0472 104.708,66.3805 104,65.5C 103.737,60.9828 102.737,56.6495 101,52.5C 99.9229,54.116 99.4229,55.9493 99.5,58C 99.9008,61.1671 100.234,64.3337 100.5,67.5C 99.6873,65.7392 98.6873,64.0725 97.5,62.5C 97.3713,60.7839 97.038,59.1172 96.5,57.5C 96.6721,53.466 97.1721,49.466 98,45.5C 98.971,47.9612 100.471,49.9612 102.5,51.5 Z"/></g>
<g><path style="opacity:1" fill="#dcbf30" d="M 106.5,67.5 C 106.66,69.1992 106.494,70.8659 106,72.5C 105.259,71.3595 104.425,71.3595 103.5,72.5C 102.712,71.2299 101.712,70.2299 100.5,69.5C 100.5,68.8333 100.5,68.1667 100.5,67.5C 100.234,64.3337 99.9008,61.1671 99.5,58C 99.4229,55.9493 99.9229,54.116 101,52.5C 102.737,56.6495 103.737,60.9828 104,65.5C 104.708,66.3805 105.542,67.0472 106.5,67.5 Z"/></g>
<g><path style="opacity:0.998" fill="#d0b63c" d="M 104.5,56.5 C 105.5,58.5 106.5,60.5 107.5,62.5C 109.131,67.0243 110.131,71.6909 110.5,76.5C 110.5,77.8333 110.5,79.1667 110.5,80.5C 108.156,79.6528 106.656,77.9861 106,75.5C 104.748,78.0135 104.248,80.6802 104.5,83.5C 102.877,79.0223 101.544,74.3556 100.5,69.5C 101.712,70.2299 102.712,71.2299 103.5,72.5C 104.425,71.3595 105.259,71.3595 106,72.5C 106.494,70.8659 106.66,69.1992 106.5,67.5C 105.047,64.0137 104.381,60.347 104.5,56.5 Z"/></g>
<g><path style="opacity:0.075" fill="#1b1203" d="M 97.5,62.5 C 98.6873,64.0725 99.6873,65.7392 100.5,67.5C 100.5,68.1667 100.5,68.8333 100.5,69.5C 101.544,74.3556 102.877,79.0223 104.5,83.5C 103.53,89.1529 100.53,93.4862 95.5,96.5C 95.5,96.1667 95.5,95.8333 95.5,95.5C 98.0613,92.1141 100.395,88.6141 102.5,85C 100.907,78.1292 99.2405,71.2959 97.5,64.5C 97.5,63.8333 97.5,63.1667 97.5,62.5 Z"/></g>
<g><path style="opacity:1" fill="#dcbf33" d="M 110.5,80.5 C 111.831,88.8252 113.165,97.1585 114.5,105.5C 113.175,106.953 112.342,106.619 112,104.5C 111.077,106.034 110.577,107.701 110.5,109.5C 111.892,112.703 112.559,116.036 112.5,119.5C 111.985,117.249 110.985,115.249 109.5,113.5C 109.167,110.167 108.833,106.833 108.5,103.5C 109.466,98.8114 107.8,95.4781 103.5,93.5C 105.714,91.9042 106.714,89.7376 106.5,87C 106.392,85.3189 105.725,84.1522 104.5,83.5C 104.248,80.6802 104.748,78.0135 106,75.5C 106.656,77.9861 108.156,79.6528 110.5,80.5 Z"/></g>
<g><path style="opacity:0.176" fill="#0b0300" d="M 107.5,60.5 C 110.42,67.8307 112.586,75.4974 114,83.5C 116.882,98.1273 119.549,112.794 122,127.5C 123.744,136.565 126.577,145.231 130.5,153.5C 129.833,153.5 129.167,153.5 128.5,153.5C 127.342,150.011 126.009,146.678 124.5,143.5C 123.808,139.4 122.808,135.4 121.5,131.5C 118.57,112.895 114.903,94.5612 110.5,76.5C 110.131,71.6909 109.131,67.0243 107.5,62.5C 107.5,61.8333 107.5,61.1667 107.5,60.5 Z"/></g>
<g><path style="opacity:1" fill="#d3ba3a" d="M 104.5,83.5 C 105.725,84.1522 106.392,85.3189 106.5,87C 106.714,89.7376 105.714,91.9042 103.5,93.5C 107.8,95.4781 109.466,98.8114 108.5,103.5C 107.852,101.502 107.019,99.5018 106,97.5C 104.296,99.3734 102.463,101.04 100.5,102.5C 98.5,102.167 96.5,101.833 94.5,101.5C 94.4802,103.143 95.1468,104.476 96.5,105.5C 95.2839,106.096 93.9506,106.263 92.5,106C 91.9103,107.509 91.2436,109.009 90.5,110.5C 89.914,110.291 89.414,109.957 89,109.5C 87.8289,110.893 86.3289,111.727 84.5,112C 85.448,112.483 86.448,112.649 87.5,112.5C 87.5,113.5 87.5,114.5 87.5,115.5C 86.1667,115.5 84.8333,115.5 83.5,115.5C 83.5,113.833 83.5,112.167 83.5,110.5C 87.5,105.833 91.5,101.167 95.5,96.5C 100.53,93.4862 103.53,89.1529 104.5,83.5 Z"/></g>
<g><path style="opacity:0.137" fill="#140c01" d="M 95.5,95.5 C 95.5,95.8333 95.5,96.1667 95.5,96.5C 91.5,101.167 87.5,105.833 83.5,110.5C 78.1946,116.14 72.8612,121.807 67.5,127.5C 59.1603,135.84 51.1603,144.507 43.5,153.5C 36.5,160.833 29.5,168.167 22.5,175.5C 22.5,174.833 22.5,174.167 22.5,173.5C 46.3787,147.077 70.7121,121.077 95.5,95.5 Z"/></g>
<g><path style="opacity:1" fill="#c8b13e" d="M 110.5,76.5 C 114.903,94.5612 118.57,112.895 121.5,131.5C 120.5,130.167 119.5,128.833 118.5,127.5C 117.677,124.649 116.344,121.982 114.5,119.5C 115.369,114.876 115.369,110.209 114.5,105.5C 113.165,97.1585 111.831,88.8252 110.5,80.5C 110.5,79.1667 110.5,77.8333 110.5,76.5 Z"/></g>
<g><path style="opacity:1" fill="#ceb63a" d="M 100.5,102.5 C 99.8333,103.5 99.1667,104.5 98.5,105.5C 88.505,116.828 78.1717,127.828 67.5,138.5C 67.162,135.989 67.162,133.655 67.5,131.5C 67.8333,131.167 68.1667,130.833 68.5,130.5C 69.5237,131.853 70.857,132.52 72.5,132.5C 72.8174,128.828 71.1507,127.162 67.5,127.5C 72.8612,121.807 78.1946,116.14 83.5,110.5C 83.5,112.167 83.5,113.833 83.5,115.5C 84.8333,115.5 86.1667,115.5 87.5,115.5C 87.5,114.5 87.5,113.5 87.5,112.5C 86.448,112.649 85.448,112.483 84.5,112C 86.3289,111.727 87.8289,110.893 89,109.5C 89.414,109.957 89.914,110.291 90.5,110.5C 91.2436,109.009 91.9103,107.509 92.5,106C 93.9506,106.263 95.2839,106.096 96.5,105.5C 95.1468,104.476 94.4802,103.143 94.5,101.5C 96.5,101.833 98.5,102.167 100.5,102.5 Z"/></g>
<g><path style="opacity:1" fill="#dcbf30" d="M 114.5,105.5 C 115.369,110.209 115.369,114.876 114.5,119.5C 116.344,121.982 117.677,124.649 118.5,127.5C 118.775,132.22 117.941,132.554 116,128.5C 115.667,129.833 115.333,131.167 115,132.5C 114.1,128.166 113.266,123.832 112.5,119.5C 112.559,116.036 111.892,112.703 110.5,109.5C 110.577,107.701 111.077,106.034 112,104.5C 112.342,106.619 113.175,106.953 114.5,105.5 Z"/></g>
<g><path style="opacity:0.163" fill="#180f03" d="M 108.5,103.5 C 108.833,106.833 109.167,110.167 109.5,113.5C 111.631,128.028 115.297,142.028 120.5,155.5C 122.132,158.814 123.799,162.147 125.5,165.5C 124.833,165.5 124.167,165.5 123.5,165.5C 119.54,158.572 116.373,151.239 114,143.5C 111.114,129.398 108.114,115.398 105,101.5C 103.629,103.041 102.129,104.375 100.5,105.5C 99.8333,105.5 99.1667,105.5 98.5,105.5C 99.1667,104.5 99.8333,103.5 100.5,102.5C 102.463,101.04 104.296,99.3734 106,97.5C 107.019,99.5018 107.852,101.502 108.5,103.5 Z"/></g>
<g><path style="opacity:1" fill="#d0b83c" d="M 67.5,127.5 C 71.1507,127.162 72.8174,128.828 72.5,132.5C 70.857,132.52 69.5237,131.853 68.5,130.5C 68.1667,130.833 67.8333,131.167 67.5,131.5C 67.162,133.655 67.162,135.989 67.5,138.5C 61.8695,145.798 55.5361,152.465 48.5,158.5C 48.4068,152.38 51.4068,149.047 57.5,148.5C 58.3463,145.473 59.6796,142.64 61.5,140C 55.4762,142.658 50.4762,146.991 46.5,153C 45.552,153.483 44.552,153.649 43.5,153.5C 51.1603,144.507 59.1603,135.84 67.5,127.5 Z"/></g>
<g><path style="opacity:1" fill="#d0b63a" d="M 109.5,113.5 C 110.985,115.249 111.985,117.249 112.5,119.5C 113.266,123.832 114.1,128.166 115,132.5C 115.333,131.167 115.667,129.833 116,128.5C 117.941,132.554 118.775,132.22 118.5,127.5C 119.5,128.833 120.5,130.167 121.5,131.5C 122.808,135.4 123.808,139.4 124.5,143.5C 123.778,143.918 123.278,144.584 123,145.5C 122.438,140.903 121.272,140.57 119.5,144.5C 120.718,145.803 120.385,146.803 118.5,147.5C 120.055,149.943 120.722,152.61 120.5,155.5C 115.297,142.028 111.631,128.028 109.5,113.5 Z"/></g>
<g><path style="opacity:1" fill="#d1b839" d="M 124.5,143.5 C 126.009,146.678 127.342,150.011 128.5,153.5C 129.11,154.391 129.443,155.391 129.5,156.5C 127.419,156.366 125.419,155.866 123.5,155C 125.837,152.407 126.004,149.574 124,146.5C 123.593,149.682 123.093,152.849 122.5,156C 124.313,159.79 125.979,163.623 127.5,167.5C 126.5,167.167 125.833,166.5 125.5,165.5C 123.799,162.147 122.132,158.814 120.5,155.5C 120.722,152.61 120.055,149.943 118.5,147.5C 120.385,146.803 120.718,145.803 119.5,144.5C 121.272,140.57 122.438,140.903 123,145.5C 123.278,144.584 123.778,143.918 124.5,143.5 Z"/></g>
<g><path style="opacity:1" fill="#dcbf32" d="M 48.5,158.5 C 45.8239,159.008 43.1572,159.175 40.5,159C 42.607,157.736 43.607,155.903 43.5,153.5C 44.552,153.649 45.552,153.483 46.5,153C 50.4762,146.991 55.4762,142.658 61.5,140C 59.6796,142.64 58.3463,145.473 57.5,148.5C 51.4068,149.047 48.4068,152.38 48.5,158.5 Z"/></g>
<g><path style="opacity:0.063" fill="#110901" d="M 98.5,105.5 C 99.1667,105.5 99.8333,105.5 100.5,105.5C 77.7397,131.098 54.4064,156.264 30.5,181C 25.7703,183.48 22.4369,182.314 20.5,177.5C 20.6682,175.829 21.3349,174.496 22.5,173.5C 22.5,174.167 22.5,174.833 22.5,175.5C 22.4676,180.213 24.8009,181.713 29.5,180C 35.984,173.013 42.3173,165.846 48.5,158.5C 55.5361,152.465 61.8695,145.798 67.5,138.5C 78.1717,127.828 88.505,116.828 98.5,105.5 Z"/></g>
<g><path style="opacity:1" fill="#dac131" d="M 129.5,156.5 C 129.993,158.806 130.326,161.139 130.5,163.5C 133.932,163.248 134.932,164.581 133.5,167.5C 131.518,168.623 129.518,168.623 127.5,167.5C 125.979,163.623 124.313,159.79 122.5,156C 123.093,152.849 123.593,149.682 124,146.5C 126.004,149.574 125.837,152.407 123.5,155C 125.419,155.866 127.419,156.366 129.5,156.5 Z"/></g>
<g><path style="opacity:1" fill="#d0b63b" d="M 43.5,153.5 C 43.607,155.903 42.607,157.736 40.5,159C 43.1572,159.175 45.8239,159.008 48.5,158.5C 42.3173,165.846 35.984,173.013 29.5,180C 24.8009,181.713 22.4676,180.213 22.5,175.5C 29.5,168.167 36.5,160.833 43.5,153.5 Z"/></g>
<g><path style="opacity:0.169" fill="#140b01" d="M 128.5,153.5 C 129.167,153.5 129.833,153.5 130.5,153.5C 139.27,171.623 153.437,177.623 173,171.5C 178.326,172.144 179.826,174.977 177.5,180C 171.699,182.134 165.699,183.3 159.5,183.5C 159.5,184.5 159.5,185.5 159.5,186.5C 158.5,186.5 157.5,186.5 156.5,186.5C 156.5,185.5 156.5,184.5 156.5,183.5C 149.86,183.282 143.527,181.782 137.5,179C 132.331,174.997 127.664,170.497 123.5,165.5C 124.167,165.5 124.833,165.5 125.5,165.5C 125.833,166.5 126.5,167.167 127.5,167.5C 138.021,180.464 151.355,184.797 167.5,180.5C 171.081,180.862 174.081,179.862 176.5,177.5C 177.761,174.544 176.595,172.877 173,172.5C 153.859,178.948 139.359,173.614 129.5,156.5C 129.443,155.391 129.11,154.391 128.5,153.5 Z"/></g>
<g><path style="opacity:1" fill="#dabe34" d="M 176.5,177.5 C 174.081,179.862 171.081,180.862 167.5,180.5C 158.902,181.23 150.568,180.23 142.5,177.5C 141.046,175.737 141.38,174.403 143.5,173.5C 152.715,177.076 162.048,177.409 171.5,174.5C 172.833,174.667 174.167,174.833 175.5,175C 176.252,175.671 176.586,176.504 176.5,177.5 Z"/></g>
<g><path style="opacity:0.988" fill="#cab340" d="M 129.5,156.5 C 139.359,173.614 153.859,178.948 173,172.5C 176.595,172.877 177.761,174.544 176.5,177.5C 176.586,176.504 176.252,175.671 175.5,175C 174.167,174.833 172.833,174.667 171.5,174.5C 162.048,177.409 152.715,177.076 143.5,173.5C 141.38,174.403 141.046,175.737 142.5,177.5C 150.568,180.23 158.902,181.23 167.5,180.5C 151.355,184.797 138.021,180.464 127.5,167.5C 129.518,168.623 131.518,168.623 133.5,167.5C 134.932,164.581 133.932,163.248 130.5,163.5C 130.326,161.139 129.993,158.806 129.5,156.5 Z"/></g>
<g><path style="opacity:0.015" fill="#3e3e3e" d="M 194.5,179.5 C 195.693,179.97 196.36,180.97 196.5,182.5C 196.452,185.329 195.452,187.663 193.5,189.5C 193.167,189.333 192.833,189.167 192.5,189C 193.866,186.003 194.533,182.836 194.5,179.5 Z"/></g>
<g><path style="opacity:0.066" fill="#1e1e1e" d="M 190.5,190.5 C 191.239,190.369 191.906,190.536 192.5,191C 190.702,193.472 188.368,195.139 185.5,196C 165.158,196.833 144.825,196.666 124.5,195.5C 144.492,194.667 164.492,194.167 184.5,194C 186.91,193.4 188.91,192.234 190.5,190.5 Z"/></g>
</svg>
